<mxfile host="app.diagrams.net" agent="Mozilla/5.0 (Windows NT 10.0; Win64; x64) AppleWebKit/537.36 (KHTML, like Gecko) Chrome/126.0.0.0 Safari/537.36 Edg/126.0.0.0" version="26.2.13">
  <diagram id="C5RBs43oDa-KdzZeNtuy" name="Page-1">
    <mxGraphModel dx="1235" dy="626" grid="1" gridSize="10" guides="1" tooltips="1" connect="1" arrows="1" fold="1" page="1" pageScale="1" pageWidth="827" pageHeight="1169" math="0" shadow="0">
      <root>
        <mxCell id="WIyWlLk6GJQsqaUBKTNV-0" />
        <mxCell id="WIyWlLk6GJQsqaUBKTNV-1" parent="WIyWlLk6GJQsqaUBKTNV-0" />
        
        <!-- Controllers -->
        <mxCell id="controller-folder" value="controller" style="shape=folder;fontStyle=1;spacingTop=10;tabWidth=100;tabHeight=25;tabPosition=left;html=1;whiteSpace=wrap;" vertex="1" parent="WIyWlLk6GJQsqaUBKTNV-1">
          <mxGeometry x="250" y="70" width="310" height="140" as="geometry" />
        </mxCell>
        
        <mxCell id="account-controller" value="AccountController" style="shape=folder;fontStyle=1;spacingTop=10;tabWidth=40;tabHeight=14;tabPosition=left;html=1;whiteSpace=wrap;" vertex="1" parent="WIyWlLk6GJQsqaUBKTNV-1">
          <mxGeometry x="270" y="120" width="120" height="70" as="geometry" />
        </mxCell>
        
        <mxCell id="product-controller" value="ProductController" style="shape=folder;fontStyle=1;spacingTop=10;tabWidth=40;tabHeight=14;tabPosition=left;html=1;whiteSpace=wrap;" vertex="1" parent="WIyWlLk6GJQsqaUBKTNV-1">
          <mxGeometry x="410" y="120" width="120" height="70" as="geometry" />
        </mxCell>
        
        <!-- Services -->
        <mxCell id="service-folder" value="service" style="shape=folder;fontStyle=1;spacingTop=10;tabWidth=100;tabHeight=25;tabPosition=left;html=1;whiteSpace=wrap;" vertex="1" parent="WIyWlLk6GJQsqaUBKTNV-1">
          <mxGeometry x="100" y="250" width="610" height="170" as="geometry" />
        </mxCell>
        
        <mxCell id="account-service" value="AccountService" style="shape=folder;fontStyle=1;spacingTop=10;tabWidth=40;tabHeight=14;tabPosition=left;html=1;whiteSpace=wrap;" vertex="1" parent="WIyWlLk6GJQsqaUBKTNV-1">
          <mxGeometry x="130" y="310" width="120" height="70" as="geometry" />
        </mxCell>
        
        <mxCell id="product-service" value="ProductService" style="shape=folder;fontStyle=1;spacingTop=10;tabWidth=40;tabHeight=14;tabPosition=left;html=1;whiteSpace=wrap;" vertex="1" parent="WIyWlLk6GJQsqaUBKTNV-1">
          <mxGeometry x="270" y="310" width="120" height="70" as="geometry" />
        </mxCell>
        
        <mxCell id="cart-service" value="CartService" style="shape=folder;fontStyle=1;spacingTop=10;tabWidth=40;tabHeight=14;tabPosition=left;html=1;whiteSpace=wrap;" vertex="1" parent="WIyWlLk6GJQsqaUBKTNV-1">
          <mxGeometry x="410" y="310" width="120" height="70" as="geometry" />
        </mxCell>
        
        <mxCell id="order-service" value="OrderService" style="shape=folder;fontStyle=1;spacingTop=10;tabWidth=40;tabHeight=14;tabPosition=left;html=1;whiteSpace=wrap;" vertex="1" parent="WIyWlLk6GJQsqaUBKTNV-1">
          <mxGeometry x="550" y="310" width="120" height="70" as="geometry" />
        </mxCell>
        
        <!-- Repositories -->
        <mxCell id="repo-folder" value="repository" style="shape=folder;fontStyle=1;spacingTop=10;tabWidth=100;tabHeight=25;tabPosition=left;html=1;whiteSpace=wrap;" vertex="1" parent="WIyWlLk6GJQsqaUBKTNV-1">
          <mxGeometry x="100" y="460" width="610" height="160" as="geometry" />
        </mxCell>
        
        <mxCell id="account-repo" value="AccountRepository" style="shape=folder;fontStyle=1;spacingTop=10;tabWidth=40;tabHeight=14;tabPosition=left;html=1;whiteSpace=wrap;" vertex="1" parent="WIyWlLk6GJQsqaUBKTNV-1">
          <mxGeometry x="130" y="520" width="120" height="70" as="geometry" />
        </mxCell>
        
        <mxCell id="product-repo" value="ProductRepository" style="shape=folder;fontStyle=1;spacingTop=10;tabWidth=40;tabHeight=14;tabPosition=left;html=1;whiteSpace=wrap;" vertex="1" parent="WIyWlLk6GJQsqaUBKTNV-1">
          <mxGeometry x="270" y="520" width="120" height="70" as="geometry" />
        </mxCell>
        
        <mxCell id="cart-repo" value="CartRepository" style="shape=folder;fontStyle=1;spacingTop=10;tabWidth=40;tabHeight=14;tabPosition=left;html=1;whiteSpace=wrap;" vertex="1" parent="WIyWlLk6GJQsqaUBKTNV-1">
          <mxGeometry x="410" y="520" width="120" height="70" as="geometry" />
        </mxCell>
        
        <mxCell id="stock-repo" value="StockpileRepository" style="shape=folder;fontStyle=1;spacingTop=10;tabWidth=40;tabHeight=14;tabPosition=left;html=1;whiteSpace=wrap;" vertex="1" parent="WIyWlLk6GJQsqaUBKTNV-1">
          <mxGeometry x="550" y="520" width="130" height="70" as="geometry" />
        </mxCell>
        
        <!-- Entity -->
        <mxCell id="entity-folder" value="entity/model" style="shape=folder;fontStyle=1;spacingTop=10;tabWidth=100;tabHeight=25;tabPosition=left;html=1;whiteSpace=wrap;" vertex="1" parent="WIyWlLk6GJQsqaUBKTNV-1">
          <mxGeometry x="100" y="660" width="610" height="160" as="geometry" />
        </mxCell>
        
        <mxCell id="account-entity" value="Account" style="shape=folder;fontStyle=1;spacingTop=10;tabWidth=40;tabHeight=14;tabPosition=left;html=1;whiteSpace=wrap;" vertex="1" parent="WIyWlLk6GJQsqaUBKTNV-1">
          <mxGeometry x="130" y="720" width="90" height="70" as="geometry" />
        </mxCell>
        
        <mxCell id="product-entity" value="Product" style="shape=folder;fontStyle=1;spacingTop=10;tabWidth=40;tabHeight=14;tabPosition=left;html=1;whiteSpace=wrap;" vertex="1" parent="WIyWlLk6GJQsqaUBKTNV-1">
          <mxGeometry x="240" y="720" width="90" height="70" as="geometry" />
        </mxCell>
        
        <mxCell id="cart-entity" value="CartItem" style="shape=folder;fontStyle=1;spacingTop=10;tabWidth=40;tabHeight=14;tabPosition=left;html=1;whiteSpace=wrap;" vertex="1" parent="WIyWlLk6GJQsqaUBKTNV-1">
          <mxGeometry x="350" y="720" width="90" height="70" as="geometry" />
        </mxCell>
        
        <mxCell id="order-entity" value="Order" style="shape=folder;fontStyle=1;spacingTop=10;tabWidth=40;tabHeight=14;tabPosition=left;html=1;whiteSpace=wrap;" vertex="1" parent="WIyWlLk6GJQsqaUBKTNV-1">
          <mxGeometry x="460" y="720" width="90" height="70" as="geometry" />
        </mxCell>
        
        <mxCell id="advert-entity" value="Advertisement" style="shape=folder;fontStyle=1;spacingTop=10;tabWidth=40;tabHeight=14;tabPosition=left;html=1;whiteSpace=wrap;" vertex="1" parent="WIyWlLk6GJQsqaUBKTNV-1">
          <mxGeometry x="570" y="720" width="110" height="70" as="geometry" />
        </mxCell>
        
        <!-- Utils -->
        <mxCell id="utils-folder" value="utils" style="shape=folder;fontStyle=1;spacingTop=10;tabWidth=100;tabHeight=25;tabPosition=left;html=1;whiteSpace=wrap;" vertex="1" parent="WIyWlLk6GJQsqaUBKTNV-1">
          <mxGeometry x="580" y="70" width="130" height="140" as="geometry" />
        </mxCell>
        
        <mxCell id="jwt-util" value="JwtIntercepter" style="shape=folder;fontStyle=1;spacingTop=10;tabWidth=40;tabHeight=14;tabPosition=left;html=1;whiteSpace=wrap;" vertex="1" parent="WIyWlLk6GJQsqaUBKTNV-1">
          <mxGeometry x="590" y="120" width="110" height="70" as="geometry" />
        </mxCell>
        
        <!-- Dependencies -->
        <!-- Controller to Service -->
        <mxCell id="ctrl-service-dep1" style="edgeStyle=orthogonalEdgeStyle;rounded=0;orthogonalLoop=1;jettySize=auto;html=1;exitX=0.5;exitY=1;exitDx=0;exitDy=0;exitPerimeter=0;entryX=0.5;entryY=0;entryDx=0;entryDy=0;entryPerimeter=0;strokeWidth=1;endArrow=open;endFill=0;endSize=8;dashed=1;" edge="1" parent="WIyWlLk6GJQsqaUBKTNV-1" source="account-controller" target="account-service">
          <mxGeometry relative="1" as="geometry">
            <Array as="points">
              <mxPoint x="330" y="230"/>
              <mxPoint x="190" y="230"/>
            </Array>
          </mxGeometry>
        </mxCell>
        
        <mxCell id="ctrl-service-dep2" style="edgeStyle=orthogonalEdgeStyle;rounded=0;orthogonalLoop=1;jettySize=auto;html=1;exitX=0.5;exitY=1;exitDx=0;exitDy=0;exitPerimeter=0;entryX=0.5;entryY=0;entryDx=0;entryDy=0;entryPerimeter=0;strokeWidth=1;endArrow=open;endFill=0;endSize=8;dashed=1;" edge="1" parent="WIyWlLk6GJQsqaUBKTNV-1" source="product-controller" target="product-service">
          <mxGeometry relative="1" as="geometry">
            <Array as="points">
              <mxPoint x="470" y="230"/>
              <mxPoint x="330" y="230"/>
            </Array>
          </mxGeometry>
        </mxCell>
        
        <!-- Service to Repository -->
        <mxCell id="service-repo-dep1" style="edgeStyle=orthogonalEdgeStyle;rounded=0;orthogonalLoop=1;jettySize=auto;html=1;exitX=0.5;exitY=1;exitDx=0;exitDy=0;exitPerimeter=0;entryX=0.5;entryY=0;entryDx=0;entryDy=0;entryPerimeter=0;strokeWidth=1;endArrow=open;endFill=0;endSize=8;dashed=1;" edge="1" parent="WIyWlLk6GJQsqaUBKTNV-1" source="account-service" target="account-repo">
          <mxGeometry relative="1" as="geometry"/>
        </mxCell>
        
        <mxCell id="service-repo-dep2" style="edgeStyle=orthogonalEdgeStyle;rounded=0;orthogonalLoop=1;jettySize=auto;html=1;exitX=0.5;exitY=1;exitDx=0;exitDy=0;exitPerimeter=0;entryX=0.5;entryY=0;entryDx=0;entryDy=0;entryPerimeter=0;strokeWidth=1;endArrow=open;endFill=0;endSize=8;dashed=1;" edge="1" parent="WIyWlLk6GJQsqaUBKTNV-1" source="product-service" target="product-repo">
          <mxGeometry relative="1" as="geometry"/>
        </mxCell>
        
        <mxCell id="service-repo-dep3" style="edgeStyle=orthogonalEdgeStyle;rounded=0;orthogonalLoop=1;jettySize=auto;html=1;exitX=0.5;exitY=1;exitDx=0;exitDy=0;exitPerimeter=0;entryX=0.5;entryY=0;entryDx=0;entryDy=0;entryPerimeter=0;strokeWidth=1;endArrow=open;endFill=0;endSize=8;dashed=1;" edge="1" parent="WIyWlLk6GJQsqaUBKTNV-1" source="cart-service" target="cart-repo">
          <mxGeometry relative="1" as="geometry"/>
        </mxCell>
        
        <mxCell id="service-repo-dep4" style="edgeStyle=orthogonalEdgeStyle;rounded=0;orthogonalLoop=1;jettySize=auto;html=1;exitX=0.5;exitY=1;exitDx=0;exitDy=0;exitPerimeter=0;entryX=0.5;entryY=0;entryDx=0;entryDy=0;entryPerimeter=0;strokeWidth=1;endArrow=open;endFill=0;endSize=8;dashed=1;" edge="1" parent="WIyWlLk6GJQsqaUBKTNV-1" source="order-service" target="stock-repo">
          <mxGeometry relative="1" as="geometry"/>
        </mxCell>
        
        <!-- Repository to Entity -->
        <mxCell id="repo-entity-dep1" style="edgeStyle=orthogonalEdgeStyle;rounded=0;orthogonalLoop=1;jettySize=auto;html=1;exitX=0.5;exitY=1;exitDx=0;exitDy=0;exitPerimeter=0;entryX=0.5;entryY=0;entryDx=0;entryDy=0;entryPerimeter=0;strokeWidth=1;endArrow=open;endFill=0;endSize=8;dashed=1;" edge="1" parent="WIyWlLk6GJQsqaUBKTNV-1" source="account-repo" target="account-entity">
          <mxGeometry relative="1" as="geometry">
            <Array as="points">
              <mxPoint x="190" y="640"/>
              <mxPoint x="175" y="640"/>
            </Array>
          </mxGeometry>
        </mxCell>
        
        <mxCell id="repo-entity-dep2" style="edgeStyle=orthogonalEdgeStyle;rounded=0;orthogonalLoop=1;jettySize=auto;html=1;exitX=0.5;exitY=1;exitDx=0;exitDy=0;exitPerimeter=0;entryX=0.5;entryY=0;entryDx=0;entryDy=0;entryPerimeter=0;strokeWidth=1;endArrow=open;endFill=0;endSize=8;dashed=1;" edge="1" parent="WIyWlLk6GJQsqaUBKTNV-1" source="product-repo" target="product-entity">
          <mxGeometry relative="1" as="geometry">
            <Array as="points">
              <mxPoint x="330" y="640"/>
              <mxPoint x="285" y="640"/>
            </Array>
          </mxGeometry>
        </mxCell>
        
        <mxCell id="repo-entity-dep3" style="edgeStyle=orthogonalEdgeStyle;rounded=0;orthogonalLoop=1;jettySize=auto;html=1;exitX=0.5;exitY=1;exitDx=0;exitDy=0;exitPerimeter=0;entryX=0.5;entryY=0;entryDx=0;entryDy=0;entryPerimeter=0;strokeWidth=1;endArrow=open;endFill=0;endSize=8;dashed=1;" edge="1" parent="WIyWlLk6GJQsqaUBKTNV-1" source="cart-repo" target="cart-entity">
          <mxGeometry relative="1" as="geometry">
            <Array as="points">
              <mxPoint x="470" y="640"/>
              <mxPoint x="395" y="640"/>
            </Array>
          </mxGeometry>
        </mxCell>
        
        <!-- Utils dependency -->
        <mxCell id="utils-dep1" style="edgeStyle=orthogonalEdgeStyle;rounded=0;orthogonalLoop=1;jettySize=auto;html=1;exitX=0;exitY=0;exitDx=0;exitDy=85;exitPerimeter=0;entryX=1;entryY=0.25;entryDx=0;entryDy=0;entryPerimeter=0;strokeWidth=1;endArrow=open;endFill=0;endSize=8;dashed=1;" edge="1" parent="WIyWlLk6GJQsqaUBKTNV-1" source="utils-folder" target="controller-folder">
          <mxGeometry relative="1" as="geometry"/>
        </mxCell>
        
      </root>
    </mxGraphModel>
  </diagram>
</mxfile>